<?xml version="1.0" encoding="UTF-8" standalone="no"?><!DOCTYPE svg PUBLIC "-//W3C//DTD SVG 1.1//EN" "http://www.w3.org/Graphics/SVG/1.1/DTD/svg11.dtd"><svg width="100%" height="100%" viewBox="0 0 512 512" version="1.1" xmlns="http://www.w3.org/2000/svg" xmlns:xlink="http://www.w3.org/1999/xlink" xml:space="preserve" xmlns:serif="http://www.serif.com/" style="fill-rule:evenodd;clip-rule:evenodd;stroke-linejoin:round;stroke-miterlimit:2;"><g><path d="M138.7,270.566c15.493,4.091 31.262,-4.949 46.943,-8.243c17.625,-3.702 48.775,5.148 52.076,-12.556c5.218,-27.989 -35.425,-48.465 -35.391,-76.936c0.017,-14.132 31.618,-8.91 35.511,-22.496c3.471,-12.113 -22.255,-19.317 -19.978,-31.71c4.616,-25.132 41.405,-40.568 37.905,-65.88c-2.476,-17.903 -32.002,-23.296 -49.811,-20.217c-21.933,3.792 -34.159,28.267 -54.087,38.181c-7.849,3.904 -17.743,4.553 -26.023,1.672c-17.009,-5.918 -30.418,-35.248 -46.351,-26.854c-15.207,8.012 11.355,37.977 0.284,51.125c-11.955,14.199 -49.114,-5.536 -53.793,12.426c-4.75,18.229 35.982,20.468 40.456,38.766c3.606,14.749 -20.18,24.712 -21.235,39.859c-0.977,14.019 5.538,29.072 15.761,38.715c10.203,9.624 27.308,6.485 39.504,13.411c14.34,8.145 22.284,26.526 38.229,30.737" style="fill:#9d8ce9;fill-rule:nonzero;"/><path d="M501.443,318.598c-32.323,18.87 -37.616,84.516 -47.728,74.781c-17.387,-16.737 -36.494,-55.739 -56.94,-44.351c-20.859,11.619 15.462,47.375 10.313,70.321c-2.375,10.583 -27.528,4.071 -29.407,14.765c-2.241,12.753 24.445,21.662 20.827,34.063c-4.529,15.527 -40.426,12.62 -39.206,28.935c1.11,14.835 27.848,13.325 42.697,17.723c10.104,2.993 23.555,-3.25 31.025,4.111c7.884,7.769 2.505,21.128 5.181,31.569c5.42,21.145 -2.37,55.003 18.912,62.431c18.576,6.483 24.809,-27.843 34.499,-43.789c6.407,-10.543 6.704,-23.795 13.013,-34.396c3.325,-5.586 8.181,-12.313 14.952,-12.592c21.497,-0.889 43,13.489 63.943,9.333c17.615,-3.496 33.551,-15.658 42.6,-30.478c8.417,-13.782 20.534,-40.309 5.374,-48.084c-31.36,-16.084 -86.625,27.356 -104.083,-2.541c-17.414,-29.823 12.091,-67.866 15.645,-101.171c1.755,-16.45 -27.17,-39.064 -41.617,-30.63" style="fill:#9d8ce9;fill-rule:nonzero;"/><path d="M317.263,241.214c6.252,0.994 13.082,0.921 18.73,-1.938c5.644,-2.856 7.982,-9.658 12.639,-13.939c4.638,-4.264 11.295,-6.202 14.896,-11.372c3.668,-5.268 6.063,-11.811 5.713,-18.221c-0.349,-6.39 -4.982,-11.614 -7.662,-17.425c-2.388,-5.18 -4.312,-10.472 -7.408,-15.263c-3.217,-4.98 -6.259,-10.368 -11.235,-13.592c-4.988,-3.234 -11.144,-3.952 -17.038,-4.731c-5.744,-0.759 -11.445,-0.06 -17.233,0.202c-6.396,0.288 -13.481,-1.828 -18.992,1.433c-5.492,3.25 -6.438,10.867 -10.335,15.92c-3.933,5.101 -11.173,7.974 -12.879,14.185c-1.709,6.222 2.993,12.409 3.815,18.809c0.796,6.195 -1.571,12.853 0.985,18.553c2.555,5.7 8.016,9.591 13.198,13.08c4.907,3.303 10.828,4.383 16.251,6.747c5.608,2.444 10.513,6.59 16.555,7.552" style="fill:#9d8ce9;fill-rule:nonzero;"/><path d="M192.908,337.435c-0.303,27.797 43.847,24.084 67.625,38.483c12.761,7.727 19.695,24.397 34.579,23.404c25.101,-1.674 59.123,-5.228 63.723,-29.961c4.593,-24.697 -28.069,-36.397 -48.721,-50.699c-15.153,-10.494 -30.574,-19.735 -48.774,-16.82c-27.211,4.359 -68.132,8.037 -68.432,35.593" style="fill:#9d8ce9;fill-rule:nonzero;"/><path d="M155.334,582.46c13.508,-5.874 9.066,-27.827 15.383,-41.133c2.291,-4.826 4.714,-11.776 10.022,-12.378c11.287,-1.282 21.757,8.887 33.029,7.488c10.103,-1.254 22.211,-5.621 26.458,-14.872c3.982,-8.671 -6.948,-18.041 -6.965,-27.583c-0.016,-9.524 11.734,-19.364 6.87,-27.552c-5.591,-9.414 -22.064,-4.853 -30.361,-11.998c-6.163,-5.306 -5.195,-15.407 -9.489,-22.314c-4.961,-7.981 -8.559,-20.029 -17.82,-21.622c-10.075,-1.732 -18.402,8.568 -27.127,13.894c-6.516,3.978 -11.941,9.294 -18.146,13.744c-4.95,3.549 -9.343,8.094 -15.097,10.093c-7.889,2.742 -21.171,-3.893 -24.625,3.712c-4,8.808 14.805,17.945 10.792,26.747c-4.68,10.266 -30.702,4.039 -29.958,15.296c0.777,11.76 23.36,6.571 31.938,14.653c4.155,3.916 -2.922,13.464 1.601,16.948c5.444,4.194 16.415,-5.468 20.488,0.066c6.234,8.473 -1.387,21.509 2.562,31.259c4.12,10.173 10.38,29.929 20.445,25.552" style="fill:#9d8ce9;fill-rule:nonzero;"/><path d="M-29.22,396.048c5.161,18.34 9.244,47.313 28.255,48.561c24.974,1.64 36.181,-35.58 60.158,-42.757c11.9,-3.562 21.127,14.934 33.546,14.709c13.84,-0.251 31.931,-3.347 37.554,-15.995c6.017,-13.536 -10.665,-27.302 -11.738,-42.076c-0.83,-11.421 11.694,-23.095 6.272,-33.181c-5.516,-10.258 -20.703,-9.32 -31.487,-13.718c-8.328,-3.396 -17.626,-3.905 -24.853,-9.259c-18.248,-13.517 -27.459,-52.382 -49.109,-45.529c-20.19,6.391 6.271,43.779 -3.954,62.325c-8.404,15.244 -35.768,10.52 -44.506,25.574c-8.74,15.06 -4.855,34.585 -0.138,51.346" style="fill:#9d8ce9;fill-rule:nonzero;"/><path d="M410.9,314.162c8.905,1.456 17.24,7.846 25.998,5.672c9.169,-2.276 16.657,-9.5 21.673,-17.506c5.094,-8.129 6.618,-17.93 6.54,-27.523c-0.077,-9.545 -2.926,-18.627 -6.981,-27.268c-4.327,-9.218 -7.197,-23.494 -17.327,-24.525c-12.084,-1.23 -19.836,12.921 -29.903,19.719c-4.527,3.057 -7.791,8.168 -13.127,9.337c-8.992,1.971 -21.325,-7.647 -27.142,-0.512c-5.312,6.515 6.553,15.097 8.604,23.249c1.443,5.731 0.061,11.649 1.614,17.35c1.931,7.088 2.612,15.57 8.539,19.911c5.913,4.33 14.279,0.913 21.512,2.096" style="fill:#9d8ce9;fill-rule:nonzero;"/><path d="M441.833,137.871c11.441,5.279 17.348,19.066 28.954,23.971c11.805,4.988 25.696,7.944 37.987,4.316c11.444,-3.377 20.33,-13.405 26.791,-23.435c6.437,-9.993 10.516,-22.083 10.186,-33.965c-0.335,-12.058 -12.274,-21.84 -12.07,-33.901c0.189,-11.242 16.962,-20.269 13.163,-30.851c-1.879,-5.232 -6.781,-36.43 -24.368,-53.784c-20.834,-20.558 -55.243,-27.781 -63.504,-35.96c-9.607,-9.512 -17.126,23.455 -30.259,26.666c-11.65,2.848 -23.431,-16.482 -34.066,-10.937c-10.87,5.667 -9.971,22.546 -11.526,34.706c-1.332,10.415 6.984,21.414 3.103,31.171c-3.196,8.033 -17.106,6.989 -21.293,14.553c-3.78,6.831 -0.066,15.493 0.349,23.289c0.42,7.889 2.636,15.585 2.141,23.468c-0.74,11.789 -15.191,27.601 -5.795,34.759c11.284,8.597 27.565,-9.002 41.664,-7.432c7.275,0.811 9.888,11.548 16.804,13.946c6.887,2.388 15.12,-3.634 21.739,-0.58" style="fill:#9d8ce9;fill-rule:nonzero;"/></g></svg>