<?xml version="1.0" encoding="UTF-8" standalone="no"?><!DOCTYPE svg PUBLIC "-//W3C//DTD SVG 1.1//EN" "http://www.w3.org/Graphics/SVG/1.1/DTD/svg11.dtd"><svg width="100%" height="100%" viewBox="0 0 100 100" version="1.1" xmlns="http://www.w3.org/2000/svg" xmlns:xlink="http://www.w3.org/1999/xlink" xml:space="preserve" xmlns:serif="http://www.serif.com/" style="fill-rule:evenodd;clip-rule:evenodd;stroke-linejoin:round;stroke-miterlimit:2;"><path d="M45.833,41.667l-8.333,-0c-1.181,-0 -2.17,-0.4 -2.969,-1.198c-0.798,-0.799 -1.198,-1.788 -1.198,-2.969c0,-1.181 0.4,-2.17 1.198,-2.969c0.799,-0.798 1.788,-1.198 2.969,-1.198l25,0c1.181,0 2.17,0.4 2.969,1.198c0.798,0.799 1.198,1.788 1.198,2.969c-0,1.181 -0.4,2.17 -1.198,2.969c-0.799,0.798 -1.788,1.198 -2.969,1.198l-8.333,-0l-0,20.833c-0,1.181 -0.4,2.17 -1.198,2.969c-0.799,0.798 -1.788,1.198 -2.969,1.198c-1.181,-0 -2.17,-0.4 -2.969,-1.198c-0.798,-0.799 -1.198,-1.788 -1.198,-2.969l0,-20.833Zm-41.666,50l-0,-16.667c-0,-1.181 0.399,-2.17 1.198,-2.969c0.798,-0.798 1.788,-1.198 2.968,-1.198l4.167,0l0,-41.666l-4.167,-0c-1.18,-0 -2.17,-0.4 -2.968,-1.198c-0.799,-0.799 -1.198,-1.788 -1.198,-2.969l-0,-16.667c-0,-1.18 0.399,-2.17 1.198,-2.968c0.798,-0.799 1.788,-1.198 2.968,-1.198l16.667,-0c1.181,-0 2.17,0.399 2.969,1.198c0.798,0.798 1.198,1.788 1.198,2.968l-0,4.167l41.666,-0l0,-4.167c0,-1.18 0.4,-2.17 1.198,-2.968c0.799,-0.799 1.788,-1.198 2.969,-1.198l16.667,-0c1.18,-0 2.17,0.399 2.968,1.198c0.799,0.798 1.198,1.788 1.198,2.968l0,16.667c0,1.181 -0.399,2.17 -1.198,2.969c-0.798,0.798 -1.788,1.198 -2.968,1.198l-4.167,-0l0,41.666l4.167,0c1.18,0 2.17,0.4 2.968,1.198c0.799,0.799 1.198,1.788 1.198,2.969l0,16.667c0,1.18 -0.399,2.17 -1.198,2.968c-0.798,0.799 -1.788,1.198 -2.968,1.198l-16.667,0c-1.181,0 -2.17,-0.399 -2.969,-1.198c-0.798,-0.798 -1.198,-1.788 -1.198,-2.968l0,-4.167l-41.666,0l-0,4.167c-0,1.18 -0.4,2.17 -1.198,2.968c-0.799,0.799 -1.788,1.198 -2.969,1.198l-16.667,0c-1.18,0 -2.17,-0.399 -2.968,-1.198c-0.799,-0.798 -1.198,-1.788 -1.198,-2.968Zm25,-12.5l41.666,-0l0,-4.167c0,-1.181 0.4,-2.17 1.198,-2.969c0.799,-0.798 1.788,-1.198 2.969,-1.198l4.167,0l-0,-41.666l-4.167,-0c-1.181,-0 -2.17,-0.4 -2.969,-1.198c-0.798,-0.799 -1.198,-1.788 -1.198,-2.969l0,-4.167l-41.666,0l-0,4.167c-0,1.181 -0.4,2.17 -1.198,2.969c-0.799,0.798 -1.788,1.198 -2.969,1.198l-4.167,-0l0,41.666l4.167,0c1.181,0 2.17,0.4 2.969,1.198c0.798,0.799 1.198,1.788 1.198,2.969l-0,4.167Zm-16.667,-60.419c-0,0.553 0.22,1.083 0.611,1.475c0.391,0.391 0.921,0.61 1.474,0.61c1.272,0 2.891,0 4.163,0c0.553,0 1.083,-0.219 1.475,-0.61c0.391,-0.392 0.61,-0.922 0.61,-1.475c0,-1.272 0,-2.891 0,-4.163c0,-0.553 -0.219,-1.083 -0.61,-1.474c-0.392,-0.391 -0.922,-0.611 -1.475,-0.611c-1.272,0 -2.891,0 -4.163,0c-0.553,-0 -1.083,0.22 -1.474,0.611c-0.391,0.391 -0.611,0.921 -0.611,1.474l0,4.163Zm66.667,-0c-0,0.553 0.219,1.083 0.61,1.475c0.392,0.391 0.922,0.61 1.475,0.61c1.272,0 2.891,0 4.163,0c0.553,0 1.083,-0.219 1.474,-0.61c0.391,-0.392 0.611,-0.922 0.611,-1.475c0,-1.272 0,-2.891 0,-4.163c0,-0.553 -0.22,-1.083 -0.611,-1.474c-0.391,-0.391 -0.921,-0.611 -1.474,-0.611c-1.272,0 -2.891,0 -4.163,0c-0.553,-0 -1.083,0.22 -1.475,0.611c-0.391,0.391 -0.61,0.921 -0.61,1.474l-0,4.163Zm-0,66.667c-0,0.553 0.219,1.083 0.61,1.474c0.392,0.391 0.922,0.611 1.475,0.611c1.272,0 2.891,0 4.163,0c0.553,0 1.083,-0.22 1.474,-0.611c0.391,-0.391 0.611,-0.921 0.611,-1.474c0,-1.272 0,-2.891 0,-4.163c0,-0.553 -0.22,-1.083 -0.611,-1.475c-0.391,-0.391 -0.921,-0.61 -1.474,-0.61c-1.272,-0 -2.891,-0 -4.163,-0c-0.553,-0 -1.083,0.219 -1.475,0.61c-0.391,0.392 -0.61,0.922 -0.61,1.475l-0,4.163Zm-66.667,-0c-0,0.553 0.22,1.083 0.611,1.474c0.391,0.391 0.921,0.611 1.474,0.611c1.272,0 2.891,0 4.163,0c0.553,0 1.083,-0.22 1.475,-0.611c0.391,-0.391 0.61,-0.921 0.61,-1.474c0,-1.272 0,-2.891 0,-4.163c0,-0.553 -0.219,-1.083 -0.61,-1.475c-0.392,-0.391 -0.922,-0.61 -1.475,-0.61c-1.272,-0 -2.891,-0 -4.163,-0c-0.553,-0 -1.083,0.219 -1.474,0.61c-0.391,0.392 -0.611,0.922 -0.611,1.475l0,4.163Z" style="fill:#e3e3e3;fill-rule:nonzero;"/></svg>