<?xml version="1.0" encoding="UTF-8" standalone="no"?><!DOCTYPE svg PUBLIC "-//W3C//DTD SVG 1.1//EN" "http://www.w3.org/Graphics/SVG/1.1/DTD/svg11.dtd"><svg width="100%" height="100%" viewBox="0 0 417 417" version="1.1" xmlns="http://www.w3.org/2000/svg" xmlns:xlink="http://www.w3.org/1999/xlink" xml:space="preserve" xmlns:serif="http://www.serif.com/" style="fill-rule:evenodd;clip-rule:evenodd;stroke-linejoin:round;stroke-miterlimit:2;"><path d="M192.269,176.209l-32.124,-0c-4.553,-0 -8.366,-1.542 -11.446,-4.618c-3.076,-3.081 -4.618,-6.893 -4.618,-11.446c-0,-4.553 1.542,-8.366 4.618,-11.446c3.08,-3.076 6.893,-4.618 11.446,-4.618l96.377,-0c4.553,-0 8.365,1.542 11.446,4.618c3.076,3.08 4.618,6.893 4.618,11.446c0,4.553 -1.542,8.365 -4.618,11.446c-3.081,3.076 -6.893,4.618 -11.446,4.618l-32.125,-0l0,80.313c0,4.553 -1.542,8.365 -4.618,11.446c-3.08,3.076 -6.893,4.618 -11.446,4.618c-4.553,0 -8.365,-1.542 -11.445,-4.618c-3.077,-3.081 -4.619,-6.893 -4.619,-11.446l0,-80.313Zm-160.626,192.754l0,-64.253c0,-4.552 1.538,-8.365 4.619,-11.445c3.076,-3.077 6.893,-4.619 11.442,-4.619l16.064,0l-0,-160.626l-16.064,0c-4.549,0 -8.366,-1.542 -11.442,-4.618c-3.081,-3.08 -4.619,-6.893 -4.619,-11.446l0,-64.252c0,-4.549 1.538,-8.366 4.619,-11.442c3.076,-3.081 6.893,-4.619 11.442,-4.619l64.252,0c4.553,0 8.366,1.538 11.446,4.619c3.076,3.076 4.618,6.893 4.618,11.442l0,16.064l160.626,-0l0,-16.064c0,-4.549 1.542,-8.366 4.619,-11.442c3.08,-3.081 6.893,-4.619 11.445,-4.619l64.253,0c4.549,0 8.366,1.538 11.442,4.619c3.08,3.076 4.618,6.893 4.618,11.442l0,64.252c0,4.553 -1.538,8.366 -4.618,11.446c-3.076,3.076 -6.893,4.618 -11.442,4.618l-16.064,0l0,160.626l16.064,0c4.549,0 8.366,1.542 11.442,4.619c3.08,3.08 4.618,6.893 4.618,11.445l0,64.253c0,4.549 -1.538,8.366 -4.618,11.442c-3.076,3.08 -6.893,4.618 -11.442,4.618l-64.253,0c-4.552,0 -8.365,-1.538 -11.445,-4.618c-3.077,-3.076 -4.619,-6.893 -4.619,-11.442l0,-16.064l-160.626,0l0,16.064c0,4.549 -1.542,8.366 -4.618,11.442c-3.08,3.08 -6.893,4.618 -11.446,4.618l-64.252,0c-4.549,0 -8.366,-1.538 -11.442,-4.618c-3.081,-3.076 -4.619,-6.893 -4.619,-11.442Zm96.377,-48.188l160.626,-0l0,-16.065c0,-4.552 1.542,-8.365 4.619,-11.445c3.08,-3.077 6.893,-4.619 11.445,-4.619l16.065,0l-0,-160.626l-16.065,0c-4.552,0 -8.365,-1.542 -11.445,-4.618c-3.077,-3.08 -4.619,-6.893 -4.619,-11.446l0,-16.064l-160.626,0l0,16.064c0,4.553 -1.542,8.366 -4.618,11.446c-3.08,3.076 -6.893,4.618 -11.446,4.618l-16.064,0l0,160.626l16.064,0c4.553,0 8.366,1.542 11.446,4.619c3.076,3.08 4.618,6.893 4.618,11.445l0,16.065Zm-64.252,-232.921c-0,2.132 0.848,4.175 2.355,5.686c1.507,1.508 3.551,2.352 5.683,2.352l16.048,0c2.132,0 4.175,-0.844 5.686,-2.352c1.508,-1.511 2.352,-3.554 2.352,-5.686l0,-16.048c0,-2.132 -0.844,-4.176 -2.352,-5.683c-1.511,-1.507 -3.554,-2.355 -5.686,-2.355l-16.048,-0c-2.132,-0 -4.176,0.848 -5.683,2.355c-1.507,1.507 -2.355,3.551 -2.355,5.683l-0,16.048Zm257.007,0c-0,2.132 0.844,4.175 2.351,5.686c1.511,1.508 3.555,2.352 5.686,2.352l16.049,0c2.132,0 4.175,-0.844 5.683,-2.352c1.507,-1.511 2.355,-3.554 2.355,-5.686l0,-16.048c0,-2.132 -0.848,-4.176 -2.355,-5.683c-1.508,-1.507 -3.551,-2.355 -5.683,-2.355l-16.049,-0c-2.131,-0 -4.175,0.848 -5.686,2.355c-1.507,1.507 -2.351,3.551 -2.351,5.683l-0,16.048Zm-0,257.007c-0,2.132 0.844,4.175 2.351,5.683c1.511,1.507 3.555,2.355 5.686,2.355l16.049,0c2.132,0 4.175,-0.848 5.683,-2.355c1.507,-1.508 2.355,-3.551 2.355,-5.683l0,-16.049c0,-2.131 -0.848,-4.175 -2.355,-5.686c-1.508,-1.507 -3.551,-2.351 -5.683,-2.351l-16.049,-0c-2.131,-0 -4.175,0.844 -5.686,2.351c-1.507,1.511 -2.351,3.555 -2.351,5.686l-0,16.049Zm-257.007,0c-0,2.132 0.848,4.175 2.355,5.683c1.507,1.507 3.551,2.355 5.683,2.355l16.048,0c2.132,0 4.175,-0.848 5.686,-2.355c1.508,-1.508 2.352,-3.551 2.352,-5.683l0,-16.049c0,-2.131 -0.844,-4.175 -2.352,-5.686c-1.511,-1.507 -3.554,-2.351 -5.686,-2.351l-16.048,-0c-2.132,-0 -4.176,0.844 -5.683,2.351c-1.507,1.511 -2.355,3.555 -2.355,5.686l-0,16.049Z" style="fill:#e3e3e3;fill-rule:nonzero;"/></svg>