<?xml version="1.0" encoding="UTF-8" standalone="no"?><!DOCTYPE svg PUBLIC "-//W3C//DTD SVG 1.1//EN" "http://www.w3.org/Graphics/SVG/1.1/DTD/svg11.dtd"><svg width="100%" height="100%" viewBox="0 0 100 100" version="1.1" xmlns="http://www.w3.org/2000/svg" xmlns:xlink="http://www.w3.org/1999/xlink" xml:space="preserve" xmlns:serif="http://www.serif.com/" style="fill-rule:evenodd;clip-rule:evenodd;stroke-linejoin:round;stroke-miterlimit:2;"><rect x="0" y="0" width="100" height="100" style="fill:none;fill-rule:nonzero;"/><path d="M16.667,62.5c-0,2.292 1.875,4.167 4.166,4.167l12.5,-0l0,12.5c0,2.291 1.875,4.166 4.167,4.166c2.292,0 4.167,-1.875 4.167,-4.166l-0,-12.53c-0,-4.586 -3.718,-8.304 -8.304,-8.304l-12.53,0c-2.291,0 -4.166,1.875 -4.166,4.167Z" style="fill:#e3e3e3;"/><path d="M37.5,16.667c-2.292,-0 -4.167,1.875 -4.167,4.166l0,12.5l-12.5,0c-2.291,0 -4.166,1.875 -4.166,4.167c-0,2.292 1.875,4.167 4.166,4.167l12.53,-0c4.586,-0 8.304,-3.718 8.304,-8.304l-0,-12.53c-0,-2.291 -1.875,-4.166 -4.167,-4.166Z" style="fill:#e3e3e3;"/><path d="M83.333,37.5c0,-2.292 -1.875,-4.167 -4.166,-4.167l-12.5,0l-0,-12.5c-0,-2.291 -1.875,-4.166 -4.167,-4.166c-2.292,-0 -4.167,1.875 -4.167,4.166l0,12.53c0,4.586 3.718,8.304 8.304,8.304l12.53,-0c2.291,-0 4.166,-1.875 4.166,-4.167Z" style="fill:#e3e3e3;"/><path d="M62.5,83.333c2.292,0 4.167,-1.875 4.167,-4.166l-0,-12.5l12.5,-0c2.291,-0 4.166,-1.875 4.166,-4.167c0,-2.292 -1.875,-4.167 -4.166,-4.167l-12.53,0c-4.586,0 -8.304,3.718 -8.304,8.304l0,12.53c0,2.291 1.875,4.166 4.167,4.166Z" style="fill:#e3e3e3;"/></svg>