<?xml version="1.0" encoding="UTF-8" standalone="no"?><!DOCTYPE svg PUBLIC "-//W3C//DTD SVG 1.1//EN" "http://www.w3.org/Graphics/SVG/1.1/DTD/svg11.dtd">
<svg width="100%" height="100%" viewBox="0 0 100 100" version="1.1" xmlns="http://www.w3.org/2000/svg" xmlns:xlink="http://www.w3.org/1999/xlink" xml:space="preserve" xmlns:serif="http://www.serif.com/" style="fill-rule:evenodd;clip-rule:evenodd;stroke-linejoin:round;stroke-miterlimit:2;">
    <path d="M20.833,79.167l0,-58.334l0,21.146l0,-0.312l0,37.5Zm0,8.333c-2.291,0 -4.253,-0.816 -5.885,-2.448c-1.632,-1.632 -2.448,-3.594 -2.448,-5.885l0,-58.334c0,-2.291 0.816,-4.253 2.448,-5.885c1.632,-1.632 3.594,-2.448 5.885,-2.448l46.563,-0c1.111,-0 2.17,0.208 3.177,0.625c1.007,0.417 1.892,1.007 2.656,1.771l11.875,11.875c0.764,0.764 1.354,1.649 1.771,2.656c0.417,1.007 0.625,2.066 0.625,3.177l0,6.458c0,1.181 -0.399,2.171 -1.198,2.969c-0.799,0.799 -1.788,1.198 -2.969,1.198c-1.18,0 -2.17,-0.399 -2.968,-1.198c-0.799,-0.798 -1.198,-1.788 -1.198,-2.969l-0,-6.354l-11.875,-11.875l-46.459,0l0,58.334l24.167,-0c1.181,-0 2.17,0.399 2.969,1.198c0.798,0.798 1.198,1.788 1.198,2.968c-0,1.181 -0.4,2.17 -1.198,2.969c-0.799,0.799 -1.788,1.198 -2.969,1.198l-24.167,0Zm8.334,-45.833l29.166,-0c1.181,-0 2.17,-0.4 2.969,-1.198c0.799,-0.799 1.198,-1.788 1.198,-2.969l-0,-8.333c-0,-1.181 -0.399,-2.17 -1.198,-2.969c-0.799,-0.799 -1.788,-1.198 -2.969,-1.198l-29.166,0c-1.181,0 -2.17,0.399 -2.969,1.198c-0.799,0.799 -1.198,1.788 -1.198,2.969l-0,8.333c-0,1.181 0.399,2.17 1.198,2.969c0.799,0.798 1.788,1.198 2.969,1.198Zm16.875,32.708c-0.07,-0.625 -0.122,-1.233 -0.157,-1.823c-0.034,-0.59 -0.052,-1.198 -0.052,-1.823c0,-3.75 0.695,-7.361 2.084,-10.833c1.389,-3.472 3.402,-6.563 6.041,-9.271c-0.625,-0.208 -1.267,-0.365 -1.927,-0.469c-0.659,-0.104 -1.337,-0.156 -2.031,-0.156c-3.472,-0 -6.424,1.215 -8.854,3.646c-2.431,2.43 -3.646,5.382 -3.646,8.854c-0,2.708 0.781,5.156 2.344,7.344c1.562,2.187 3.628,3.698 6.198,4.531Z" style="fill:#e3e3e3;fill-rule:nonzero;"/>
    <path transform="rotate(0 73.6 70.4)" d="M73.676,88.849c-5.153,-0 -9.537,-1.789 -13.152,-5.365c-3.615,-3.576 -5.422,-7.941 -5.422,-13.094l-0,-0.404l-2.077,2.076c-0.423,0.423 -0.962,0.635 -1.615,0.635c-0.654,-0 -1.192,-0.212 -1.615,-0.635c-0.424,-0.423 -0.635,-0.961 -0.635,-1.615c-0,-0.654 0.211,-1.192 0.635,-1.615l5.999,-5.999c0.461,-0.462 1,-0.692 1.615,-0.692c0.615,-0 1.154,0.23 1.615,0.692l5.999,5.999c0.423,0.423 0.635,0.961 0.635,1.615c-0,0.654 -0.212,1.192 -0.635,1.615c-0.423,0.423 -0.961,0.635 -1.615,0.635c-0.654,-0 -1.192,-0.212 -1.615,-0.635l-2.077,-2.076l0,0.404c0,3.845 1.356,7.114 4.067,9.806c2.711,2.692 6.009,4.038 9.893,4.038c0.615,-0 1.221,-0.039 1.817,-0.115c0.596,-0.077 1.183,-0.212 1.759,-0.404c0.654,-0.193 1.27,-0.173 1.846,0.057c0.577,0.231 1.019,0.635 1.327,1.212c0.308,0.615 0.337,1.221 0.087,1.817c-0.25,0.596 -0.702,0.99 -1.356,1.182c-0.884,0.308 -1.788,0.529 -2.711,0.664c-0.923,0.134 -1.846,0.202 -2.769,0.202Zm-0.231,-32.304c-0.615,0 -1.221,0.039 -1.817,0.116c-0.596,0.076 -1.182,0.211 -1.759,0.403c-0.654,0.193 -1.279,0.173 -1.875,-0.057c-0.596,-0.231 -1.048,-0.635 -1.356,-1.212c-0.307,-0.577 -0.336,-1.163 -0.086,-1.759c0.25,-0.596 0.683,-0.99 1.298,-1.183c0.923,-0.307 1.846,-0.538 2.769,-0.692c0.923,-0.154 1.865,-0.231 2.826,-0.231c5.153,0 9.538,1.789 13.152,5.365c3.615,3.577 5.423,7.941 5.423,13.095l-0,0.403l2.076,-2.076c0.423,-0.423 0.962,-0.635 1.616,-0.635c0.653,0 1.192,0.212 1.615,0.635c0.423,0.423 0.634,0.961 0.634,1.615c0,0.654 -0.211,1.192 -0.634,1.615l-5.999,5.999c-0.462,0.462 -1,0.692 -1.616,0.692c-0.615,0 -1.153,-0.23 -1.615,-0.692l-5.999,-5.999c-0.423,-0.423 -0.635,-0.961 -0.635,-1.615c0,-0.654 0.212,-1.192 0.635,-1.615c0.423,-0.423 0.961,-0.635 1.615,-0.635c0.654,0 1.192,0.212 1.615,0.635l2.077,2.076l0,-0.403c0,-3.846 -1.356,-7.115 -4.067,-9.807c-2.711,-2.692 -6.009,-4.038 -9.893,-4.038Z" style="fill:#e3e3e3;fill-rule:nonzero;">
        <animateTransform attributeName="transform" type="rotate" from="0 73.6 70.4" to="360 73.6 70.4" dur="2s" repeatCount="indefinite"/>
    </path>
</svg>
