<?xml version="1.0" encoding="UTF-8" standalone="no"?><!DOCTYPE svg PUBLIC "-//W3C//DTD SVG 1.1//EN" "http://www.w3.org/Graphics/SVG/1.1/DTD/svg11.dtd"><svg width="100%" height="100%" viewBox="0 0 100 100" version="1.1" xmlns="http://www.w3.org/2000/svg" xmlns:xlink="http://www.w3.org/1999/xlink" xml:space="preserve" xmlns:serif="http://www.serif.com/" style="fill-rule:evenodd;clip-rule:evenodd;stroke-linejoin:round;stroke-miterlimit:2;"><path d="M50,69.535l-16.209,9.775c-0.605,0.353 -1.21,0.501 -1.816,0.445c-0.606,-0.056 -1.155,-0.26 -1.646,-0.612c-0.491,-0.353 -0.871,-0.814 -1.138,-1.383c-0.267,-0.568 -0.31,-1.198 -0.128,-1.887l4.303,-18.405l-14.311,-12.388c-0.535,-0.464 -0.875,-1.003 -1.022,-1.614c-0.147,-0.612 -0.108,-1.207 0.116,-1.784c0.224,-0.576 0.548,-1.047 0.97,-1.413c0.422,-0.366 0.999,-0.605 1.731,-0.718l18.885,-1.65l7.333,-17.38c0.266,-0.647 0.671,-1.125 1.213,-1.435c0.543,-0.309 1.116,-0.464 1.719,-0.464c0.603,-0 1.176,0.155 1.719,0.464c0.542,0.31 0.947,0.788 1.213,1.435l7.333,17.38l18.885,1.65c0.732,0.113 1.309,0.352 1.731,0.718c0.422,0.366 0.746,0.837 0.97,1.413c0.224,0.577 0.263,1.172 0.116,1.784c-0.147,0.611 -0.487,1.15 -1.022,1.614l-14.311,12.388l4.304,18.405c0.181,0.689 0.138,1.319 -0.129,1.887c-0.267,0.569 -0.646,1.03 -1.138,1.383c-0.491,0.352 -1.04,0.556 -1.646,0.612c-0.606,0.056 -1.211,-0.092 -1.816,-0.445l-16.209,-9.775Z" style="fill:#e3e3e3;fill-rule:nonzero;"/></svg>